<svg width="138" height="33" viewBox="0 0 138 33" fill="none" xmlns="http://www.w3.org/2000/svg">
<path d="M25.0713 9.08873L23.5655 11.7136L18.4159 2.73426L2.60739 30.2958H13.3108C13.3108 31.7455 14.4782 32.9207 15.9182 32.9207H2.6074C1.67595 32.9207 0.815336 32.4201 0.34969 31.608C-0.115957 30.7959 -0.115909 29.7954 0.349815 28.9833L16.1583 1.42181C16.6241 0.60962 17.4849 0.109283 18.4164 0.109283C19.348 0.109283 20.2088 0.60962 20.6746 1.42181L25.0713 9.08873V9.08873Z" fill="#00C58E"/>
<path d="M36.4831 28.9833L26.5771 11.7136L25.0713 9.08871L23.5655 11.7136L13.6606 28.9833C13.1949 29.7954 13.1949 30.7959 13.6605 31.608C14.1262 32.4201 14.9868 32.9207 15.9182 32.9207H34.2222C35.1539 32.9207 36.0148 32.4207 36.4807 31.6085C36.9466 30.7963 36.9467 29.7956 36.4809 28.9833H36.4831ZM15.9182 30.2958L25.0713 14.3385L34.2222 30.2958H15.9182L15.9182 30.2958Z" fill="#2F495E"/>
<path d="M43.5654 31.6082C43.0997 32.4202 42.2392 32.9207 41.3078 32.9207H34.2222C35.6622 32.9207 36.8296 31.7455 36.8296 30.2958H41.3024L28.6108 8.16673L26.5771 11.7136L25.0713 9.08873L26.3533 6.85428C26.819 6.04208 27.6798 5.54175 28.6114 5.54175C29.543 5.54175 30.4038 6.04208 30.8695 6.85428L43.5654 28.9833C44.0312 29.7955 44.0312 30.7961 43.5654 31.6082V31.6082Z" fill="#108775"/>
<path fill-rule="evenodd" clip-rule="evenodd" d="M66.9727 19.5339C67.1201 19.691 67.2234 19.9053 67.2086 20.1339V31.7768C67.2086 32.0196 67.1201 32.2625 66.9432 32.4482C66.8556 32.5364 66.7501 32.606 66.6333 32.6527C66.5165 32.6995 66.3911 32.7222 66.2647 32.7196C66.1173 32.7196 65.9698 32.691 65.8223 32.6482C65.7031 32.6083 65.5965 32.5394 65.5126 32.4482L57.7255 22.6339V31.8625C57.7298 31.9755 57.7097 32.0881 57.6666 32.1932C57.6234 32.2983 57.5581 32.3935 57.4749 32.4728C57.3916 32.5521 57.2922 32.6137 57.183 32.6538C57.0738 32.6938 56.9572 32.7114 56.8406 32.7053C56.6194 32.7053 56.3982 32.6196 56.2507 32.4625C56.0903 32.3072 56.0001 32.0965 56 31.8768V20.2053C56 19.9625 56.1032 19.7196 56.295 19.5482C56.3776 19.4665 56.4763 19.4017 56.5852 19.3575C56.6941 19.3134 56.8111 19.2908 56.9291 19.291C57.0766 19.291 57.2388 19.3196 57.3716 19.3768C57.5191 19.4196 57.6371 19.5196 57.7255 19.6196L65.4683 29.4625V20.1339C65.4641 20.0209 65.4842 19.9083 65.5273 19.8032C65.5705 19.6981 65.6358 19.6029 65.719 19.5236C65.8023 19.4443 65.9017 19.3827 66.0109 19.3426C66.12 19.3026 66.2366 19.285 66.3532 19.291C66.5745 19.291 66.7957 19.3625 66.9432 19.5339H66.9727ZM83.004 19.5625C83.1662 19.7482 83.2694 19.991 83.2547 20.2196V27.591C83.2694 28.5339 83.0335 29.4768 82.5615 30.3053C82.1191 31.1053 81.4554 31.7625 80.6442 32.2053C79.8183 32.6768 78.8745 32.9196 77.9011 32.9053C76.9424 32.9053 75.9838 32.6768 75.1284 32.2196C74.3214 31.7751 73.6577 31.1223 73.2112 30.3339C72.7407 29.4976 72.5019 28.5576 72.518 27.6053V20.2339C72.518 19.991 72.6065 19.7482 72.813 19.5768C72.9971 19.4048 73.2429 19.3087 73.4987 19.3087C73.7545 19.3087 74.0004 19.4048 74.1845 19.5768C74.3615 19.7482 74.4647 19.9768 74.4647 20.2339V27.5768C74.45 28.2053 74.6122 28.8196 74.9367 29.3768C75.2352 29.8834 75.6665 30.3048 76.187 30.5983C76.7076 30.8918 77.2988 31.047 77.9011 31.0482C78.3709 31.0501 78.8364 30.9614 79.2705 30.7873C79.7045 30.6132 80.0984 30.3571 80.4293 30.034C80.7601 29.7109 81.0212 29.3272 81.1974 28.9053C81.3736 28.4834 81.4613 28.0318 81.4554 27.5768V20.2339C81.4554 19.991 81.5291 19.7482 81.6914 19.5625C81.8683 19.3768 82.1043 19.2768 82.355 19.291C82.6058 19.291 82.8417 19.391 83.004 19.5625V19.5625ZM98.3273 31.2482C98.4402 31.4076 98.4971 31.5979 98.4896 31.791C98.5043 32.0339 98.4011 32.2768 98.2094 32.4482C98.0366 32.6029 97.8104 32.6895 97.5752 32.691C97.2655 32.7053 96.9705 32.5482 96.7935 32.3053L92.959 27.3339L89.1835 32.3053C89.1001 32.4285 88.9862 32.5296 88.8523 32.5995C88.7184 32.6693 88.5686 32.7057 88.4165 32.7053C88.1806 32.7053 87.9741 32.6196 87.8119 32.4625C87.6644 32.3196 87.5612 32.1196 87.5612 31.9196C87.5612 31.691 87.6496 31.4625 87.7971 31.291L91.8676 25.9339L87.7824 20.6196C87.6366 20.4473 87.5632 20.2281 87.5769 20.0056C87.5906 19.7832 87.6903 19.574 87.8561 19.4196C87.9951 19.2816 88.1761 19.1904 88.3726 19.1596C88.5691 19.1287 88.7706 19.1598 88.9475 19.2482C89.0894 19.3115 89.2116 19.4101 89.3014 19.5339L93.1065 24.4768L96.8525 19.5768C97.0148 19.3339 97.295 19.1768 97.6047 19.1482C97.8407 19.1482 98.0766 19.2625 98.2389 19.4339C98.4011 19.5768 98.5043 19.791 98.5191 20.0053C98.5191 20.2196 98.4453 20.4053 98.3126 20.5768L94.1831 25.891L98.3126 31.2482H98.3273ZM112.559 19.5339C112.736 19.691 112.854 19.9339 112.84 20.1768C112.84 20.4196 112.736 20.6482 112.545 20.8053C112.368 20.9625 112.117 21.0482 111.866 21.0339H108.356V31.8053C108.356 32.0482 108.268 32.2768 108.076 32.4482C107.876 32.6189 107.619 32.7132 107.353 32.7132C107.087 32.7132 106.83 32.6189 106.631 32.4482C106.539 32.3662 106.465 32.2669 106.414 32.1563C106.364 32.0458 106.337 31.9263 106.336 31.8053V21.0339H102.826C102.575 21.0339 102.339 20.9625 102.147 20.791C102.056 20.7095 101.983 20.6099 101.935 20.499C101.887 20.3881 101.864 20.2685 101.867 20.1482C101.867 19.9196 101.955 19.691 102.132 19.5339C102.324 19.3625 102.575 19.2768 102.811 19.291H111.866C112.117 19.291 112.368 19.3625 112.559 19.5339Z" fill="#2E495E"/>
<path fill-rule="evenodd" clip-rule="evenodd" d="M116.866 32.3768C116.232 32.0339 115.686 31.5196 115.317 30.9054C115.214 30.7625 115.155 30.5768 115.14 30.3911C115.14 30.1482 115.244 29.9196 115.435 29.7625C115.597 29.5911 115.819 29.5054 116.055 29.4768C116.409 29.5196 116.733 29.6911 116.94 29.9625C117.382 30.6768 118.178 31.1053 119.019 31.0768C119.358 31.0863 119.696 31.0298 120.012 30.9106C120.329 30.7914 120.617 30.612 120.861 30.3828C121.104 30.1537 121.298 29.8796 121.43 29.5767C121.562 29.2739 121.63 28.9484 121.63 28.6196V20.2196C121.627 20.096 121.652 19.9732 121.703 19.8598C121.754 19.7463 121.829 19.6449 121.924 19.5625C122.116 19.3911 122.367 19.2911 122.618 19.2911C122.883 19.2911 123.134 19.3768 123.326 19.5482C123.413 19.6348 123.482 19.7376 123.528 19.8505C123.573 19.9635 123.595 20.0841 123.591 20.2053V28.6339C123.607 29.3896 123.41 30.1352 123.02 30.7899C122.63 31.4446 122.062 31.9835 121.379 32.3482C120.694 32.7255 119.921 32.9262 119.134 32.9312C118.346 32.9362 117.57 32.7453 116.881 32.3768H116.866ZM130.508 32.4339C129.726 32.1482 129.004 31.7196 128.384 31.1482C128.261 31.0566 128.161 30.9401 128.089 30.8068C128.018 30.6735 127.978 30.5268 127.971 30.3768C127.973 30.2579 128 30.1407 128.05 30.0325C128.101 29.9242 128.175 29.8274 128.266 29.7482C128.348 29.6639 128.446 29.5965 128.555 29.5498C128.664 29.5032 128.781 29.4783 128.9 29.4768C129.122 29.4768 129.313 29.5482 129.476 29.6911C129.947 30.1196 130.508 30.4768 131.098 30.7339C131.717 30.9625 132.366 31.0768 133.015 31.0768C133.753 31.0911 134.49 30.9053 135.124 30.5053C135.64 30.2196 135.98 29.6911 135.98 29.1053C135.994 28.4911 135.67 27.9053 135.124 27.5625C134.331 27.1163 133.462 26.8115 132.558 26.6625C131.201 26.3768 130.154 25.9482 129.417 25.3339C128.679 24.7196 128.325 23.8625 128.325 22.7768C128.31 22.0625 128.517 21.3625 128.945 20.7768C129.372 20.2053 129.947 19.7482 130.626 19.4625C132.156 18.8715 133.856 18.8461 135.404 19.3911C136.062 19.6032 136.665 19.949 137.174 20.4053C137.44 20.6053 137.617 20.9053 137.617 21.2196C137.617 21.334 137.594 21.4473 137.548 21.5528C137.502 21.6583 137.435 21.7539 137.351 21.8339C137.271 21.9247 137.172 21.9973 137.059 22.0467C136.947 22.0961 136.825 22.121 136.702 22.1196C136.555 22.1196 136.378 22.0625 136.26 21.9625C135.392 21.2092 134.269 20.7921 133.104 20.7911C132.366 20.7482 131.629 20.9339 130.995 21.3053C130.754 21.4606 130.557 21.6709 130.421 21.9176C130.285 22.1643 130.213 22.4398 130.213 22.7196C130.213 22.9994 130.285 23.2749 130.421 23.5216C130.557 23.7683 130.754 23.9787 130.995 24.1339C131.716 24.5456 132.504 24.8355 133.325 24.9911C134.195 25.1482 135.036 25.4196 135.847 25.7482C136.466 26.0196 136.997 26.4339 137.366 26.9768C137.749 27.6053 137.926 28.3053 137.897 29.0339C137.912 29.7482 137.69 30.4339 137.263 31.0053C136.82 31.6053 136.201 32.0625 135.493 32.3482C133.888 32.9423 132.119 32.9727 130.493 32.4339H130.508Z" fill="#00C48D"/>
</svg>
